<svg xmlns="http://www.w3.org/2000/svg" version="1.1" xmlns:xlink="http://www.w3.org/1999/xlink" xmlns:svgjs="http://svgjs.dev/svgjs" width="1500" height="1286" viewBox="0 0 1500 1286"><g transform="matrix(1,0,0,1,0.38622278976447433,0.5206477732792791)"><svg viewBox="0 0 288 247" data-background-color="#131313" preserveAspectRatio="xMidYMid meet" height="1286" width="1500" xmlns="http://www.w3.org/2000/svg" xmlns:xlink="http://www.w3.org/1999/xlink"><g id="tight-bounds" transform="matrix(1,0,0,1,-0.07415477563478134,-0.09999999999999432)"><svg viewBox="0 0 288.14830955126956 247.2" height="247.2" width="288.14830955126956"><g><svg viewBox="0 0 395.52 339.3132659784129" height="247.2" width="288.14830955126956"><g transform="matrix(1,0,0,1,0,252.28976861142547)"><svg viewBox="0 0 395.52 87.02349736698747" height="87.02349736698747" width="395.52"><g id="textblocktransform"><svg viewBox="0 0 395.52 87.02349736698747" height="87.02349736698747" width="395.52" id="textblock"><g><svg viewBox="0 0 395.52 87.02349736698747" height="87.02349736698747" width="395.52"><g transform="matrix(1,0,0,1,0,0)"><svg width="395.52" viewBox="3.27 -35.18 161.32 35.5" height="87.02349736698747" data-palette-color="#f4dcfe"><g class="wordmark-text-0" data-fill-palette-color="primary" id="text-0"><path d="M6.67-34.86L6.67 0 3.27 0 3.27-34.86 6.67-34.86ZM15.4-19.19L15.4 0 12.25 0 12.25-23.75 15.4-23.75 15.4-21.53 16.16-21.53Q16.92-22.75 18.15-23.41 19.38-24.07 21.26-24.07L21.26-24.07Q24.02-24.07 25.36-22.86 26.71-21.66 26.71-18.82L26.71-18.82 26.71 0 23.58 0 23.58-19.09Q23.58-20.31 22.81-20.86 22.04-21.41 20.33-21.41L20.33-21.41Q18.63-21.41 17.33-20.83 16.04-20.24 15.4-19.19L15.4-19.19ZM37.69 0.29L37.69 0.29Q33.76 0.29 32.23-0.98 30.71-2.25 30.59-5.13L30.59-5.13Q30.54-5.88 30.52-6.82 30.51-7.76 30.61-8.47L30.61-8.47 33.47-8.47Q33.42-7.35 33.43-6.41 33.44-5.47 33.47-4.81L33.47-4.81Q33.49-3.47 34.41-2.95 35.32-2.44 37.69-2.44L37.69-2.44Q40.11-2.44 41.1-2.95 42.08-3.47 42.16-4.81L42.16-4.81Q42.23-5.64 42.26-6.04 42.28-6.45 42.26-7.2L42.26-7.2Q42.18-8.45 41.6-9.13 41.01-9.81 39.06-10.11L39.06-10.11 36.2-10.77Q34-11.23 32.81-11.94 31.61-12.65 31.12-13.78 30.63-14.92 30.54-16.65L30.54-16.65Q30.46-17.53 30.66-18.58L30.66-18.58Q30.71-21.53 32.26-22.8 33.81-24.07 37.91-24.07L37.91-24.07Q41.84-24.07 43.37-22.83 44.89-21.58 45.04-18.73L45.04-18.73Q45.04-17.99 45.03-17.05 45.01-16.11 44.94-15.41L44.94-15.41 41.99-15.41Q42.11-16.26 42.1-17.36 42.08-18.46 42.04-19.07L42.04-19.07Q42.01-20.36 41.14-20.85 40.28-21.34 37.91-21.34L37.91-21.34Q35.52-21.34 34.65-20.85 33.78-20.36 33.69-19.07L33.69-19.07Q33.66-18.46 33.61-18.05 33.56-17.65 33.59-16.94L33.59-16.94Q33.66-16.09 33.85-15.43 34.03-14.77 34.68-14.34 35.32-13.92 36.79-13.7L36.79-13.7 39.52-13.13Q42.5-12.52 43.87-11.24 45.23-9.96 45.23-7.37L45.23-7.37Q45.23-6.84 45.22-6.23 45.21-5.62 45.16-5.05L45.16-5.05Q44.99-2.2 43.37-0.95 41.74 0.29 37.69 0.29ZM56.58 0.29L56.58 0.29Q52.78 0.29 51.45-0.98 50.11-2.25 50.11-5.13L50.11-5.13 50.11-21.02 47.77-21.02 47.77-23.75 50.19-23.75 50.19-30.49 53.29-30.49 53.29-23.75 58.66-23.75 58.66-21.02 53.26-21.02 53.26-4.79Q53.26-3.44 53.83-2.93 54.39-2.42 56.66-2.42L56.66-2.42Q57.59-2.42 58.09-2.45 58.59-2.49 59.25-2.51L59.25-2.51 59.25 0.1Q58.66 0.2 57.98 0.24 57.29 0.29 56.58 0.29ZM67.3 0.27L67.3 0.27Q64.32 0.27 62.89-0.9 61.46-2.08 61.22-4.57L61.22-4.57Q61.2-5.05 61.16-5.54 61.12-6.03 61.17-6.49L61.17-6.49Q61.34-8.67 62.54-10.14 63.74-11.62 67.08-12.84L67.08-12.84Q68.45-13.33 69.96-13.72 71.47-14.11 72.96-14.48L72.96-14.48 72.96-18.99Q72.96-20.19 72.06-20.76 71.16-21.34 68.91-21.34L68.91-21.34Q66.96-21.34 65.94-20.85 64.93-20.36 64.83-19.07L64.83-19.07Q64.78-18.46 64.78-17.32 64.78-16.19 64.83-15.41L64.83-15.41 61.78-15.41Q61.73-16.02 61.68-16.99 61.64-17.97 61.71-18.73L61.71-18.73Q61.83-21.56 63.55-22.81 65.27-24.07 69.03-24.07L69.03-24.07Q72.96-24.07 74.49-22.71 76.02-21.34 76.04-18.21L76.04-18.21 76.04 0 72.96 0 72.96-2.25 72.28-2.25Q71.67-1.03 70.53-0.38 69.4 0.27 67.3 0.27ZM68.08-2.37L68.08-2.37Q71.6-2.37 72.94-4.47L72.94-4.47 72.94-11.87Q71.77-11.62 70.53-11.29 69.3-10.96 67.64-10.4L67.64-10.4Q65.66-9.67 65-8.72 64.35-7.76 64.25-6.49L64.25-6.49Q64.27-6.13 64.28-5.7 64.3-5.27 64.35-4.81L64.35-4.81Q64.52-3.64 65.52-3 66.52-2.37 68.08-2.37ZM89.2 0.32L89.2 0.32Q84.56 0.32 82.53-1.14 80.51-2.59 80.41-5.93L80.41-5.93Q80.19-11.52 80.19-17.4 80.19-23.27 80.41-28.81L80.41-28.81Q80.51-32.25 82.53-33.72 84.56-35.18 89.12-35.18L89.12-35.18Q93.57-35.18 95.61-33.74 97.64-32.3 97.81-28.98L97.81-28.98Q97.96-27.42 97.95-25.81 97.94-24.19 97.81-22.63L97.81-22.63 94.42-22.63Q94.54-24.29 94.56-26.09 94.57-27.88 94.42-29.54L94.42-29.54Q94.32-30.93 93.05-31.59 91.78-32.25 89.12-32.25L89.12-32.25Q86.41-32.25 85.13-31.59 83.85-30.93 83.8-29.54L83.8-29.54Q83.61-23.51 83.62-17.44 83.63-11.38 83.8-5.37L83.8-5.37Q83.85-3.96 85.09-3.28 86.34-2.61 89.2-2.61L89.2-2.61Q92.03-2.61 93.37-3.28 94.71-3.96 94.81-5.37L94.81-5.37Q94.86-8.69 94.81-11.99L94.81-11.99 89.07-11.99 89.07-15.06 98.11-15.06Q98.23-13.35 98.25-11.08 98.28-8.81 98.13-5.93L98.13-5.93Q98.06-2.59 95.95-1.14 93.84 0.32 89.2 0.32ZM107.55 0.27L107.55 0.27Q104.57 0.27 103.15-0.9 101.72-2.08 101.47-4.57L101.47-4.57Q101.45-5.05 101.41-5.54 101.38-6.03 101.43-6.49L101.43-6.49Q101.6-8.67 102.79-10.14 103.99-11.62 107.33-12.84L107.33-12.84Q108.7-13.33 110.21-13.72 111.73-14.11 113.22-14.48L113.22-14.48 113.22-18.99Q113.22-20.19 112.31-20.76 111.41-21.34 109.16-21.34L109.16-21.34Q107.21-21.34 106.2-20.85 105.19-20.36 105.09-19.07L105.09-19.07Q105.04-18.46 105.04-17.32 105.04-16.19 105.09-15.41L105.09-15.41 102.04-15.41Q101.99-16.02 101.94-16.99 101.89-17.97 101.96-18.73L101.96-18.73Q102.08-21.56 103.81-22.81 105.53-24.07 109.29-24.07L109.29-24.07Q113.22-24.07 114.74-22.71 116.27-21.34 116.29-18.21L116.29-18.21 116.29 0 113.22 0 113.22-2.25 112.53-2.25Q111.92-1.03 110.79-0.38 109.65 0.27 107.55 0.27ZM108.33-2.37L108.33-2.37Q111.85-2.37 113.19-4.47L113.19-4.47 113.19-11.87Q112.02-11.62 110.79-11.29 109.56-10.96 107.9-10.4L107.9-10.4Q105.92-9.67 105.26-8.72 104.6-7.76 104.5-6.49L104.5-6.49Q104.53-6.13 104.54-5.7 104.55-5.27 104.6-4.81L104.6-4.81Q104.77-3.64 105.77-3 106.77-2.37 108.33-2.37ZM123.93-19.19L123.93 0 120.78 0 120.78-23.75 123.93-23.75 123.93-21.53 124.54-21.53Q125.37-22.83 126.48-23.45 127.59-24.07 129.55-24.07L129.55-24.07Q133.48-24.07 134.38-21.34L134.38-21.34 135.04-21.34Q135.85-22.61 137.09-23.34 138.34-24.07 140.29-24.07L140.29-24.07Q142.9-24.07 144.2-22.86 145.49-21.66 145.49-18.82L145.49-18.82 145.49 0 142.37 0 142.37-19.09Q142.32-20.31 141.61-20.86 140.9-21.41 139.26-21.41L139.26-21.41Q136.02-21.41 134.75-19.12L134.75-19.12 134.75 0 131.62 0 131.62-19.09Q131.57-20.31 130.87-20.86 130.16-21.41 128.57-21.41L128.57-21.41Q125.1-21.41 123.93-19.19L123.93-19.19ZM157.28 0.29L157.28 0.29Q153.25 0.29 151.53-0.98 149.81-2.25 149.69-5.13L149.69-5.13Q149.59-6.93 149.55-9.38 149.52-11.82 149.55-14.28 149.59-16.75 149.69-18.58L149.69-18.58Q149.81-21.53 151.58-22.8 153.35-24.07 157.28-24.07L157.28-24.07Q160.99-24.07 162.65-22.83 164.31-21.58 164.48-18.73L164.48-18.73Q164.53-17.87 164.58-15.75 164.63-13.62 164.43-11.23L164.43-11.23 152.74-11.23Q152.74-9.69 152.76-8.11 152.79-6.52 152.86-4.81L152.86-4.81Q152.89-3.47 153.89-2.95 154.89-2.44 157.18-2.44L157.18-2.44Q159.45-2.44 160.38-2.95 161.31-3.47 161.41-4.81L161.41-4.81Q161.48-6.15 161.41-8.47L161.41-8.47 164.43-8.47Q164.56-7.76 164.54-6.82 164.53-5.88 164.48-5.13L164.48-5.13Q164.31-2.25 162.74-0.98 161.16 0.29 157.28 0.29ZM152.74-13.82L152.74-13.82 161.45-13.82Q161.5-15.48 161.5-16.99 161.5-18.51 161.41-19.07L161.41-19.07Q161.31-20.29 160.36-20.81 159.4-21.34 157.28-21.34L157.28-21.34Q154.91-21.34 153.9-20.81 152.89-20.29 152.86-19.07L152.86-19.07Q152.79-17.65 152.75-16.36 152.71-15.06 152.74-13.82Z" fill="#f4dcfe" data-fill-palette-color="primary"></path></g></svg></g></svg></g></svg></g></svg></g><g transform="matrix(1,0,0,1,92.1592748586962,0)"><svg viewBox="0 0 211.2014502826076 211.2014502826076" height="211.2014502826076" width="211.2014502826076"><g><svg></svg></g><g id="icon-0"><svg viewBox="0 0 211.2014502826076 211.2014502826076" height="211.2014502826076" width="211.2014502826076"><g><path d="M0 105.601c0-58.322 47.279-105.601 105.601-105.601 58.322 0 105.601 47.279 105.6 105.601 0 58.322-47.279 105.601-105.6 105.6-58.322 0-105.601-47.279-105.601-105.6zM105.601 203.354c53.987 0 97.753-43.765 97.753-97.753 0-53.987-43.765-97.753-97.753-97.753-53.987 0-97.753 43.765-97.753 97.753 0 53.987 43.765 97.753 97.753 97.753z" data-fill-palette-color="accent" fill="#eeff5f" stroke="transparent"></path></g><g transform="matrix(1,0,0,1,53.18493835067321,45.120971152114656)"><svg viewBox="0 0 104.83157358126118 120.95950797837828" height="120.95950797837828" width="104.83157358126118"><g><svg xmlns="http://www.w3.org/2000/svg" xmlns:xlink="http://www.w3.org/1999/xlink" version="1.1" x="0" y="0" viewBox="23 21 52 60" enable-background="new 0 0 100 100" xml:space="preserve" height="120.95950797837828" width="104.83157358126118" class="icon-dxe-0" data-fill-palette-color="accent" id="dxe-0"><path d="M62 81H36C28.832 81 23 75.168 23 68V34C23 26.832 28.832 21 36 21H62C69.168 21 75 26.832 75 34V68C75 75.168 69.168 81 62 81M36 23C29.935 23 25 27.935 25 34V68C25 74.065 29.935 79 36 79H62C68.065 79 73 74.065 73 68V34C73 27.935 68.065 23 62 23z" fill="#eeff5f" data-fill-palette-color="accent"></path><circle cx="40.333" cy="37.38" r="5.8" fill="#eeff5f" data-fill-palette-color="accent"></circle><path d="M63 37H52A0.5 0.5 0 0 1 52 36H63A0.5 0.5 0 0 1 63 37" fill="#eeff5f" data-fill-palette-color="accent"></path><path d="M58 41H52A0.5 0.5 0 0 1 52 40H58A0.5 0.5 0 0 1 58 41" fill="#eeff5f" data-fill-palette-color="accent"></path><rect x="51" y="54" width="14" height="11" fill="#eeff5f" data-fill-palette-color="accent"></rect><path d="M45 59H34A0.5 0.5 0 0 1 34 58H45A0.5 0.5 0 0 1 45 59" fill="#eeff5f" data-fill-palette-color="accent"></path><path d="M40 63H34A0.5 0.5 0 0 1 34 62H40A0.5 0.5 0 0 1 40 63" fill="#eeff5f" data-fill-palette-color="accent"></path></svg></g></svg></g></svg></g></svg></g><g></g></svg></g><defs></defs></svg><rect width="288.14830955126956" height="247.2" fill="none" stroke="none" visibility="hidden"></rect></g></svg></g></svg>